<?xml version="1.0" encoding="UTF-8"?>
<svg xmlns="http://www.w3.org/2000/svg" xmlns:xlink="http://www.w3.org/1999/xlink" width="40px" height="40px" viewBox="0 0 40 40" version="1.1">
<defs>
<filter id="alpha" filterUnits="objectBoundingBox" x="0%" y="0%" width="100%" height="100%">
  <feColorMatrix type="matrix" in="SourceGraphic" values="0 0 0 0 1 0 0 0 0 1 0 0 0 0 1 0 0 0 1 0"/>
</filter>
<mask id="mask0">
  <g filter="url(#alpha)">
<rect x="0" y="0" width="40" height="40" style="fill:rgb(0%,0%,0%);fill-opacity:0.993;stroke:none;"/>
  </g>
</mask>
<clipPath id="clip1">
  <rect x="0" y="0" width="40" height="40"/>
</clipPath>
<g id="surface5" clip-path="url(#clip1)">
<path style=" stroke:none;fill-rule:evenodd;fill:rgb(95.294118%,26.666668%,20.784314%);fill-opacity:1;" d="M -0.3125 -0.3125 C 11.980469 -0.3125 24.269531 -0.3125 36.5625 -0.3125 C 36.738281 0.179688 37.050781 0.597656 37.5 0.9375 C 37.605469 6.355469 37.707031 11.769531 37.8125 17.1875 C 37.8125 22.828125 37.394531 28.246094 36.5625 33.4375 C 33.546875 32.640625 30.632812 31.597656 27.8125 30.3125 C 27.8125 30.105469 27.8125 29.894531 27.8125 29.6875 C 30.171875 27.042969 30.902344 23.917969 30 20.3125 C 29.480469 19.6875 28.957031 19.0625 28.4375 18.4375 C 27.421875 19.648438 26.277344 19.859375 25 19.0625 C 25.152344 16.367188 25.152344 13.660156 25 10.9375 C 23.433594 7.570312 20.832031 6.214844 17.1875 6.875 C 18.425781 8.4375 18.738281 10.207031 18.125 12.1875 C 16.460938 13.847656 15.109375 15.722656 14.0625 17.8125 C 13.558594 16.609375 13.246094 15.359375 13.125 14.0625 C 10.226562 16.527344 9.082031 19.652344 9.6875 23.4375 C 9.6875 23.644531 9.6875 23.855469 9.6875 24.0625 C 10.046875 27.078125 11.507812 29.371094 14.0625 30.9375 C 15.265625 32.058594 16.726562 32.683594 18.4375 32.8125 C 20.207031 33.433594 21.871094 33.433594 23.4375 32.8125 C 23.855469 32.8125 24.0625 32.605469 24.0625 32.1875 C 25.039062 32.042969 25.871094 31.625 26.5625 30.9375 C 30.105469 32.1875 33.644531 33.4375 37.1875 34.6875 C 37.292969 35.515625 37.085938 36.242188 36.5625 36.875 C 24.6875 37.292969 12.8125 37.292969 0.9375 36.875 C 0.597656 36.425781 0.179688 36.113281 -0.3125 35.9375 C -0.3125 23.855469 -0.3125 11.769531 -0.3125 -0.3125 Z M -0.3125 -0.3125 "/>
</g>
<clipPath id="clip2">
  <rect x="0" y="0" width="40" height="40"/>
</clipPath>
<g id="surface8" clip-path="url(#clip2)">
<path style=" stroke:none;fill-rule:evenodd;fill:rgb(79.607844%,20%,19.607843%);fill-opacity:1;" d="M 36.5625 -0.3125 C 37.605469 -0.3125 38.644531 -0.3125 39.6875 -0.3125 C 39.6875 11.355469 39.6875 23.019531 39.6875 34.6875 C 38.5 34.503906 37.457031 34.085938 36.5625 33.4375 C 37.394531 28.246094 37.8125 22.828125 37.8125 17.1875 C 37.707031 11.769531 37.605469 6.355469 37.5 0.9375 C 37.050781 0.597656 36.738281 0.179688 36.5625 -0.3125 Z M 36.5625 -0.3125 "/>
</g>
<mask id="mask1">
  <g filter="url(#alpha)">
<rect x="0" y="0" width="40" height="40" style="fill:rgb(0%,0%,0%);fill-opacity:0.974;stroke:none;"/>
  </g>
</mask>
<clipPath id="clip3">
  <rect x="0" y="0" width="40" height="40"/>
</clipPath>
<g id="surface11" clip-path="url(#clip3)">
<path style=" stroke:none;fill-rule:evenodd;fill:rgb(80.392158%,20%,20%);fill-opacity:1;" d="M 37.1875 34.6875 C 37.941406 35.144531 38.777344 35.355469 39.6875 35.3125 C 39.6875 36.769531 39.6875 38.230469 39.6875 39.6875 C 26.355469 39.6875 13.019531 39.6875 -0.3125 39.6875 C -0.3125 38.4375 -0.3125 37.1875 -0.3125 35.9375 C 0.179688 36.113281 0.597656 36.425781 0.9375 36.875 C 12.8125 37.292969 24.6875 37.292969 36.5625 36.875 C 37.085938 36.242188 37.292969 35.515625 37.1875 34.6875 Z M 37.1875 34.6875 "/>
</g>
</defs>
<g id="surface1">
<use xlink:href="#surface5" mask="url(#mask0)"/>
<use xlink:href="#surface8"/>
<path style=" stroke:none;fill-rule:evenodd;fill:rgb(99.607843%,52.156866%,47.843137%);fill-opacity:1;" d="M 4.6875 1.5625 C 12.730469 0.875 13.355469 2.230469 6.5625 5.625 C 3.296875 11.019531 2.148438 10.292969 3.125 3.4375 C 3.777344 2.890625 4.300781 2.265625 4.6875 1.5625 Z M 4.6875 1.5625 "/>
<path style=" stroke:none;fill-rule:evenodd;fill:rgb(99.215686%,78.039217%,1.568628%);fill-opacity:1;" d="M 27.8125 29.6875 C 26.980469 29.6875 26.144531 29.6875 25.3125 29.6875 C 26.449219 27.570312 26.035156 25.90625 24.0625 24.6875 C 21.9375 22.226562 21 19.308594 21.25 15.9375 C 18.765625 17.574219 17.617188 19.867188 17.8125 22.8125 C 16.890625 23.398438 16.265625 24.230469 15.9375 25.3125 C 13.859375 24.691406 11.777344 24.066406 9.6875 23.4375 C 9.082031 19.652344 10.226562 16.527344 13.125 14.0625 C 13.246094 15.359375 13.558594 16.609375 14.0625 17.8125 C 15.109375 15.722656 16.460938 13.847656 18.125 12.1875 C 18.738281 10.207031 18.425781 8.4375 17.1875 6.875 C 20.832031 6.214844 23.433594 7.570312 25 10.9375 C 25.152344 13.660156 25.152344 16.367188 25 19.0625 C 26.277344 19.859375 27.421875 19.648438 28.4375 18.4375 C 28.957031 19.0625 29.480469 19.6875 30 20.3125 C 30.902344 23.917969 30.171875 27.042969 27.8125 29.6875 Z M 27.8125 29.6875 "/>
<path style=" stroke:none;fill-rule:evenodd;fill:rgb(97.647059%,60.000002%,31.37255%);fill-opacity:1;" d="M 24.0625 24.6875 C 22.929688 23.980469 21.679688 23.566406 20.3125 23.4375 C 19.644531 22.851562 18.8125 22.644531 17.8125 22.8125 C 17.617188 19.867188 18.765625 17.574219 21.25 15.9375 C 21 19.308594 21.9375 22.226562 24.0625 24.6875 Z M 24.0625 24.6875 "/>
<path style=" stroke:none;fill-rule:evenodd;fill:rgb(87.843138%,84.705883%,82.352942%);fill-opacity:1;" d="M 17.8125 22.8125 C 18.8125 22.644531 19.644531 22.851562 20.3125 23.4375 C 19.4375 25.996094 18.1875 28.496094 16.5625 30.9375 C 15.433594 30.050781 15.015625 28.800781 15.3125 27.1875 C 16.746094 26.996094 16.957031 26.371094 15.9375 25.3125 C 16.265625 24.230469 16.890625 23.398438 17.8125 22.8125 Z M 17.8125 22.8125 "/>
<path style=" stroke:none;fill-rule:evenodd;fill:rgb(97.647059%,96.862745%,96.078432%);fill-opacity:1;" d="M 20.3125 23.4375 C 21.679688 23.566406 22.929688 23.980469 24.0625 24.6875 C 26.035156 25.90625 26.449219 27.570312 25.3125 29.6875 C 24.894531 30.519531 24.480469 31.355469 24.0625 32.1875 C 24.0625 32.605469 23.855469 32.8125 23.4375 32.8125 C 21.769531 32.605469 20.105469 32.394531 18.4375 32.1875 C 17.484375 32.234375 16.859375 31.816406 16.5625 30.9375 C 18.1875 28.496094 19.4375 25.996094 20.3125 23.4375 Z M 20.3125 23.4375 "/>
<path style=" stroke:none;fill-rule:evenodd;fill:rgb(98.039216%,76.47059%,1.176471%);fill-opacity:1;" d="M 9.6875 24.0625 C 11.457031 24.785156 13.121094 25.617188 14.6875 26.5625 C 14.875 28.160156 14.667969 29.621094 14.0625 30.9375 C 11.507812 29.371094 10.046875 27.078125 9.6875 24.0625 Z M 9.6875 24.0625 "/>
<path style=" stroke:none;fill-rule:evenodd;fill:rgb(38.431373%,29.019609%,12.54902%);fill-opacity:1;" d="M 9.6875 24.0625 C 9.6875 23.855469 9.6875 23.644531 9.6875 23.4375 C 11.777344 24.066406 13.859375 24.691406 15.9375 25.3125 C 16.957031 26.371094 16.746094 26.996094 15.3125 27.1875 C 15.3125 26.769531 15.105469 26.5625 14.6875 26.5625 C 13.121094 25.617188 11.457031 24.785156 9.6875 24.0625 Z M 9.6875 24.0625 "/>
<path style=" stroke:none;fill-rule:evenodd;fill:rgb(87.058824%,62.352943%,19.215687%);fill-opacity:1;" d="M 14.6875 26.5625 C 15.105469 26.5625 15.3125 26.769531 15.3125 27.1875 C 15.015625 28.800781 15.433594 30.050781 16.5625 30.9375 C 16.859375 31.816406 17.484375 32.234375 18.4375 32.1875 C 18.4375 32.394531 18.4375 32.605469 18.4375 32.8125 C 16.726562 32.683594 15.265625 32.058594 14.0625 30.9375 C 14.667969 29.621094 14.875 28.160156 14.6875 26.5625 Z M 14.6875 26.5625 "/>
<path style=" stroke:none;fill-rule:evenodd;fill:rgb(76.47059%,57.254905%,9.411765%);fill-opacity:1;" d="M 25.3125 29.6875 C 26.144531 29.6875 26.980469 29.6875 27.8125 29.6875 C 27.8125 29.894531 27.8125 30.105469 27.8125 30.3125 C 27.191406 30.207031 26.777344 30.414062 26.5625 30.9375 C 25.871094 31.625 25.039062 32.042969 24.0625 32.1875 C 24.480469 31.355469 24.894531 30.519531 25.3125 29.6875 Z M 25.3125 29.6875 "/>
<path style=" stroke:none;fill-rule:evenodd;fill:rgb(28.627452%,7.450981%,6.27451%);fill-opacity:1;" d="M 26.5625 30.9375 C 26.777344 30.414062 27.191406 30.207031 27.8125 30.3125 C 30.632812 31.597656 33.546875 32.640625 36.5625 33.4375 C 37.457031 34.085938 38.5 34.503906 39.6875 34.6875 C 39.6875 34.894531 39.6875 35.105469 39.6875 35.3125 C 38.777344 35.355469 37.941406 35.144531 37.1875 34.6875 C 33.644531 33.4375 30.105469 32.1875 26.5625 30.9375 Z M 26.5625 30.9375 "/>
<path style=" stroke:none;fill-rule:evenodd;fill:rgb(78.823531%,64.313728%,59.215689%);fill-opacity:1;" d="M 18.4375 32.8125 C 18.4375 32.605469 18.4375 32.394531 18.4375 32.1875 C 20.105469 32.394531 21.769531 32.605469 23.4375 32.8125 C 21.871094 33.433594 20.207031 33.433594 18.4375 32.8125 Z M 18.4375 32.8125 "/>
<use xlink:href="#surface11" mask="url(#mask1)"/>
</g>
</svg>
